<svg width="306" height="184" viewBox="0 0 306 184" fill="none" xmlns="http://www.w3.org/2000/svg">
<path opacity="0.2" d="M10.1775 173.951C10.1775 178.081 83.5445 181.428 154.727 181.428C225.91 181.428 294.056 178.081 294.056 173.951C294.056 169.821 225.91 166.473 154.727 166.473C83.5445 166.473 10.1775 169.821 10.1775 173.951Z" fill="#182852"/>
<path d="M195.975 11.7452H184.764L185.809 3.90181C186.106 1.6681 188.011 0 190.264 0C192.473 0 194.354 1.60451 194.703 3.78563L195.975 11.7452Z" fill="#F45571"/>
<path d="M188.021 11.1704C188.021 11.1704 188.533 5.3082 190.37 5.3082C192.206 5.3082 192.625 11.1704 192.625 11.1704" fill="#FFB956"/>
<path d="M193.051 30.4208H186.741C181.88 30.4208 177.938 26.4798 177.938 21.618V18.7936C177.938 13.9318 181.879 9.99084 186.741 9.99084H193.706C198.568 9.99084 202.509 13.9318 202.509 18.7936V20.9631C202.509 26.1869 198.275 30.4208 193.051 30.4208Z" fill="#182852"/>
<path d="M0.00131706 104.467C0.00131706 105.843 0.0074318 107.194 0.0196613 108.533C0.0441202 112.208 0.111382 115.749 0.215333 119.106C0.484381 127.899 1.02248 135.396 1.87854 140.477C2.23931 142.629 2.66734 144.403 3.16263 145.717C3.62124 146.94 4.12876 147.772 4.70355 148.151C9.8705 151.551 44.8835 150.682 87.7355 151.752C107.78 152.248 160.116 152.498 181.328 152.511C239.381 152.541 293.405 153.856 297.281 150.505C298.449 149.49 299.507 147.833 300.443 145.717C300.969 144.537 301.458 143.216 301.91 141.785C302.045 141.363 302.173 140.923 302.302 140.477C303.347 136.839 304.167 132.613 304.76 128.26C305.182 125.214 305.487 122.108 305.683 119.106C305.928 115.315 305.995 111.689 305.879 108.533C305.83 107.06 305.738 105.696 305.604 104.467C305.341 102.009 304.919 100.095 304.332 98.9884C302.54 95.6069 294.909 90.709 287.626 86.6122C280.123 82.3869 270.554 77.1832 270.554 77.1832C270.554 77.1832 270.059 75.4039 269.16 72.4504C266.567 63.9754 260.605 45.833 253.329 32.4845C252.307 30.6134 251.262 28.8401 250.198 27.1953C248.394 24.4253 246.609 22.0895 244.86 20.3712C244.108 19.6375 243.368 19.0138 242.634 18.5246C239.497 16.4395 213.693 14.9842 181.328 14.2749C161.553 13.8407 108.746 13.6878 87.7355 13.8224C76.0258 13.9019 64.7013 13.9263 54.3919 13.9875C27.2914 14.1526 7.20447 14.5378 5.66968 16.6535C5.42509 16.9776 5.18661 17.6318 4.94814 18.5674C4.81973 19.0871 4.6852 19.6864 4.55679 20.3712C4.2266 22.1445 3.8964 24.4559 3.58455 27.1953C1.99472 40.9412 0.692282 65.4613 0.203103 86.6122C0.0624644 92.6596 -0.0109124 98.6888 0.00131706 104.467Z" fill="#FCFFFF"/>
<path d="M81.3939 149.701C74.5314 149.576 67.6749 149.432 60.8124 149.269C52.2481 149.063 43.6715 148.831 35.1384 147.993C32.6173 147.743 30.1152 147.38 27.6252 146.973C30.4093 134.83 41.2819 125.772 54.269 125.772C68.213 125.772 79.7173 136.213 81.3939 149.701Z" fill="#182852"/>
<path d="M280.289 147.936C262.347 149.532 244.292 149.988 226.256 150.194C227.708 136.469 239.325 125.772 253.438 125.772C266.769 125.772 277.873 135.312 280.289 147.936Z" fill="#182852"/>
<path d="M3.1626 145.717C3.6212 146.94 4.12873 147.772 4.70351 148.151C9.87046 151.551 44.8834 150.682 87.7355 151.752C107.78 152.248 160.116 152.498 181.328 152.511C239.381 152.541 293.405 153.856 297.281 150.505C298.449 149.49 299.507 147.833 300.443 145.717H3.1626Z" fill="#182852"/>
<path d="M258.422 174.213C270.087 171.459 277.311 159.769 274.556 148.104C271.802 136.439 260.112 129.216 248.447 131.97C236.782 134.725 229.559 146.414 232.313 158.079C235.068 169.744 246.757 176.967 258.422 174.213Z" fill="#2D3C62"/>
<path d="M256.337 165.384C263.127 163.781 267.331 156.978 265.727 150.189C264.124 143.4 257.321 139.196 250.532 140.799C243.743 142.402 239.539 149.205 241.142 155.994C242.745 162.783 249.548 166.987 256.337 165.384Z" fill="#E3E4F7"/>
<path d="M253.44 160.812C249.193 160.812 245.738 157.357 245.738 153.111C245.738 148.864 249.193 145.409 253.44 145.409C257.687 145.409 261.141 148.864 261.141 153.111C261.142 157.357 257.687 160.812 253.44 160.812ZM253.44 146.021C249.53 146.021 246.35 149.201 246.35 153.111C246.35 157.021 249.531 160.201 253.44 160.201C257.349 160.201 260.53 157.021 260.53 153.111C260.53 149.201 257.35 146.021 253.44 146.021Z" fill="#182852"/>
<path d="M255.084 153.111C255.084 152.203 254.348 151.467 253.44 151.467C252.532 151.467 251.796 152.204 251.796 153.111C251.796 154.019 252.532 154.755 253.44 154.755C254.348 154.755 255.084 154.019 255.084 153.111Z" fill="#2D3C62"/>
<path d="M69.8542 168.457C78.3297 159.981 78.3297 146.24 69.8542 137.764C61.3787 129.289 47.6372 129.289 39.1618 137.764C30.6863 146.24 30.6863 159.981 39.1618 168.457C47.6372 176.932 61.3787 176.932 69.8542 168.457Z" fill="#2D3C62"/>
<path d="M66.1834 157.947C68.8531 151.501 65.7926 144.112 59.3474 141.443C52.9023 138.773 45.5132 141.833 42.8435 148.279C40.1738 154.724 43.2343 162.113 49.6795 164.783C56.1246 167.452 63.5137 164.392 66.1834 157.947Z" fill="#E3E4F7"/>
<path d="M54.5092 160.812C50.2626 160.812 46.8077 157.357 46.8077 153.111C46.8077 148.864 50.2626 145.409 54.5092 145.409C58.7559 145.409 62.2108 148.864 62.2108 153.111C62.2108 157.357 58.7559 160.812 54.5092 160.812ZM54.5092 146.021C50.5995 146.021 47.4192 149.201 47.4192 153.111C47.4192 157.021 50.6001 160.201 54.5092 160.201C58.419 160.201 61.5993 157.021 61.5993 153.111C61.5993 149.201 58.419 146.021 54.5092 146.021Z" fill="#182852"/>
<path d="M56.1529 153.111C56.1529 152.203 55.4173 151.467 54.5092 151.467C53.6012 151.467 52.8656 152.204 52.8656 153.111C52.8656 154.019 53.6012 154.755 54.5092 154.755C55.4173 154.755 56.1529 154.019 56.1529 153.111Z" fill="#2D3C62"/>
<path d="M264.676 77.6259H206.195V25.8458H244.594C244.594 25.8458 256.257 49.5654 264.676 77.6259Z" fill="#182852"/>
<path d="M113.946 137.736H188.899C191.63 137.736 193.844 135.522 193.844 132.791V28.8903C193.844 26.1588 191.63 23.9447 188.899 23.9447H113.946C111.215 23.9447 109.001 26.1588 109.001 28.8903V132.791C109.001 135.522 111.215 137.736 113.946 137.736Z" fill="#EEEFFA"/>
<path d="M305.682 119.106H0.214748C0.110798 115.749 0.0435356 112.208 0.0190766 108.533C0.00684716 107.194 0.000732422 105.843 0.000732422 104.467H305.603C305.737 105.696 305.829 107.06 305.878 108.533C305.994 111.689 305.926 115.315 305.682 119.106Z" fill="#EC4965"/>
<path d="M247.586 104.467L232.947 119.106H228.551L243.189 104.467H247.586Z" fill="#FCFFFF"/>
<path d="M257.406 104.467L242.767 119.106H238.378L253.016 104.467H257.406Z" fill="#FCFFFF"/>
<path d="M267.232 104.467L252.594 119.106H248.198L262.836 104.467H267.232Z" fill="#FCFFFF"/>
<path d="M277.053 104.467L262.415 119.106H258.024L272.663 104.467H277.053Z" fill="#FCFFFF"/>
<path d="M128.912 41.0757V71.4782C128.912 74.8719 131.664 77.6235 135.057 77.6235H166.811C169.013 77.6235 170.951 76.4617 172.033 74.719C172.62 73.7773 172.963 72.6645 172.963 71.4782V41.0757C172.963 37.6759 170.205 34.9243 166.811 34.9243H135.057C131.664 34.9243 128.912 37.6759 128.912 41.0757Z" fill="#4AD4F6"/>
<path d="M301.91 141.785C301.91 141.785 304.181 139.448 304.812 135.82C305.46 132.09 304.76 128.26 304.76 128.26C304.76 128.26 299.426 128.504 297.836 129.955C296.246 131.407 295.67 139.881 301.91 141.785Z" fill="#FCB75D"/>
<path d="M4.94812 18.5674L49.2922 111.787H105.502L58.981 13.9875C27.2914 14.1526 7.20507 14.5378 5.66966 16.6535C5.42507 16.9776 5.18659 17.6318 4.94812 18.5674Z" fill="#EC4965"/>
<path d="M8.02258 135.592C8.02258 137.903 9.89614 139.777 12.2069 139.777C14.5177 139.777 16.3912 137.903 16.3912 135.592C16.3912 133.282 14.5177 131.408 12.2069 131.408C9.89614 131.407 8.02258 133.281 8.02258 135.592Z" fill="#FFB956"/>
<path d="M73.1696 80.3287C85.965 80.3287 96.3377 69.9559 96.3377 57.1606C96.3377 44.3652 85.965 33.9924 73.1696 33.9924C60.3742 33.9924 50.0015 44.3652 50.0015 57.1606C50.0015 69.9559 60.3742 80.3287 73.1696 80.3287Z" fill="#FCFFFF"/>
<path d="M76.7344 41.6077H68.1102V72.7133H76.7344V41.6077Z" fill="#275DBD"/>
<path d="M61.1086 45.6513L56.7961 53.1204L83.7336 68.6732L88.0461 61.2041L61.1086 45.6513Z" fill="#275DBD"/>
<path d="M56.7963 61.2043L61.1088 68.6734L88.0463 53.1206L83.7338 45.6515L56.7963 61.2043Z" fill="#275DBD"/>
<path d="M187.696 134.275H115.149C113.587 134.275 112.316 133.003 112.316 131.441V30.2392C112.316 28.6769 113.587 27.4056 115.149 27.4056H187.697C189.259 27.4056 190.53 28.6769 190.53 30.2392V131.441C190.53 133.003 189.258 134.275 187.696 134.275ZM115.149 28.0177C113.924 28.0177 112.927 29.0144 112.927 30.2398V131.442C112.927 132.667 113.924 133.664 115.149 133.664H187.697C188.922 133.664 189.918 132.667 189.918 131.442V30.2392C189.918 29.0138 188.922 28.0171 187.697 28.0171H115.149V28.0177Z" fill="#182852"/>
<path d="M29.7599 23.9979C29.7599 26.0488 31.4225 27.7114 33.4734 27.7114C35.5242 27.7114 37.1868 26.0488 37.1868 23.9979C37.1868 21.947 35.5242 20.2844 33.4734 20.2844C31.4225 20.2844 29.7599 21.947 29.7599 23.9979Z" fill="#FFB956"/>
<path d="M16.8621 23.9979C16.8621 26.0488 18.5247 27.7114 20.5755 27.7114C22.6264 27.7114 24.2896 26.0488 24.2896 23.9979C24.2896 21.947 22.627 20.2844 20.5755 20.2844C18.5253 20.2844 16.8621 21.947 16.8621 23.9979Z" fill="#EEEFFA"/>
<path d="M171.352 97.1466H183.514C184.693 97.1466 185.65 96.1909 185.65 95.0114C185.65 93.8324 184.694 92.8761 183.514 92.8761H171.352C170.173 92.8761 169.217 93.8318 169.217 95.0114C169.217 96.1909 170.173 97.1466 171.352 97.1466Z" fill="#182852"/>
<path d="M208.822 97.1466H220.985C222.164 97.1466 223.12 96.1909 223.12 95.0114C223.12 93.8324 222.164 92.8761 220.985 92.8761H208.822C207.643 92.8761 206.687 93.8318 206.687 95.0114C206.687 96.1909 207.642 97.1466 208.822 97.1466Z" fill="#182852"/>
<path d="M209.841 28.9502V72.4504C209.841 72.4504 218.31 72.4504 228.362 72.4504H259.492C255.97 61.5968 243.044 28.9502 243.044 28.9502H209.841Z" fill="#4AD4F6"/>
<path d="M217.423 28.9502L250.742 72.4504H255.194L223.25 28.9502H217.423Z" fill="#FCFFFF"/>
<path d="M209.841 29.739V47.753L228.362 72.4504H240.579L209.841 29.739Z" fill="#FCFFFF"/>
<path d="M255.381 60.926L248.917 74.7857H262.433L255.381 60.926Z" fill="#182852"/>
<path d="M146.951 34.9243L172.033 74.719C172.62 73.7773 172.963 72.6645 172.963 71.4782V61.5907L156.092 34.9243H146.951Z" fill="#FCFFFF"/>
<path d="M128.912 41.0757V44.8241L153.726 77.6235H163.65L137.846 34.9243H135.057C131.664 34.9243 128.912 37.6759 128.912 41.0757Z" fill="#FCFFFF"/>
<path d="M261.387 73.4661C265.021 73.4661 267.967 70.5206 267.967 66.8866V63.9326C267.967 60.2992 265.021 57.3531 261.387 57.3531V73.4661Z" fill="#182852"/>
</svg>
